<svg xmlns="http://www.w3.org/2000/svg" viewBox="0 0 800 200" width="800" height="200">
<defs>
<clipPath id="e-clip"><rect width="800" height="200" rx="16"/></clipPath>
<linearGradient id="e-bg" x1="0%" y1="0%" x2="100%" y2="100%"><stop offset="0%" stop-color="#0a0a0f"/><stop offset="100%" stop-color="#14141f"/></linearGradient>
<radialGradient id="e-choc" cx="0.42" cy="0.38" r="0.7"><stop offset="0" stop-color="#5a2d17"/><stop offset="0.55" stop-color="#3a1b0d"/><stop offset="1" stop-color="#1f0e06"/></radialGradient>
<radialGradient id="e-china" cx="0.4" cy="0.35" r="0.75"><stop offset="0" stop-color="#ffffff"/><stop offset="0.7" stop-color="#ecebe6"/><stop offset="1" stop-color="#c9c7c0"/></radialGradient>
<radialGradient id="e-shadow" cx="0.5" cy="0.5" r="0.5"><stop offset="0.6" stop-color="#000" stop-opacity="0.55"/><stop offset="1" stop-color="#000" stop-opacity="0"/></radialGradient>
<radialGradient id="e-vig" cx="0.5" cy="0.5" r="0.62"><stop offset="0.35" stop-color="#0a0a0f" stop-opacity="0.75"/><stop offset="1" stop-color="#0a0a0f" stop-opacity="0"/></radialGradient>
</defs>
<g clip-path="url(#e-clip)">
<rect width="800" height="200" fill="url(#e-bg)"/>
<g fill="none" stroke="#dcd6ee"><path d="M307,114 Q373,116 393,112 Q420,127 443,113 Q475,114 487,99 Q532,90 562,67 Q622,51 635,75" stroke-width="1.2" opacity="0.13"/><path d="M-68,191 Q-14,215 2,211 Q36,167 52,192 Q78,205 96,203 Q168,186 183,174 Q227,121 248,141" stroke-width="0.6" opacity="0.24"/><path d="M248,210 Q316,195 330,175 Q376,187 394,209 Q450,207 465,228 Q497,241 522,261 Q563,247 574,233" stroke-width="0.6" opacity="0.22"/><path d="M70,102 Q140,115 159,121 Q209,174 219,155 Q277,138 307,162 Q335,200 357,196 Q380,147 399,172" stroke-width="1.2" opacity="0.17"/><path d="M167,-2 Q196,8 211,3 Q241,-1 270,0 Q325,8 339,26 Q409,33 424,48 Q487,101 501,79" stroke-width="0.8" opacity="0.20"/><path d="M279,5 Q306,48 321,37 Q352,50 374,60 Q411,62 423,75 Q469,89 491,100 Q566,68 577,79" stroke-width="0.8" opacity="0.15"/><path d="M-58,48 Q-3,63 8,81 Q46,70 71,69 Q130,74 158,75 Q206,67 216,62 Q244,14 260,32" stroke-width="0.6" opacity="0.13"/><path d="M391,157 Q452,188 476,173 Q539,183 562,163 Q620,175 646,157 Q697,170 714,166 Q762,161 785,137" stroke-width="0.8" opacity="0.22"/><path d="M250,156 Q292,131 319,152 Q374,118 396,119 Q428,139 448,133 Q523,106 534,116 Q594,116 608,95" stroke-width="1.2" opacity="0.25"/></g>
<ellipse cx="400" cy="100" rx="300" ry="110" fill="url(#e-vig)"/>
<ellipse cx="86" cy="108" rx="80" ry="80" fill="url(#e-shadow)"/>
<circle cx="80" cy="100" r="72" fill="url(#e-china)"/>
<circle cx="80" cy="100" r="63" fill="none" stroke="#b9b6ad" stroke-width="1"/>
<circle cx="80" cy="100" r="69" fill="none" stroke="#2f6b4f" stroke-width="1.6"/>
<path d="M50,62 C36,40 18,56 40,72" fill="none" stroke="#bdbab1" stroke-width="10" stroke-linecap="round"/>
<path d="M50,62 C36,40 18,56 40,72" fill="none" stroke="#fbfbf8" stroke-width="6" stroke-linecap="round"/>
<circle cx="83" cy="104" r="52" fill="#000" opacity="0.28"/>
<circle cx="80" cy="100" r="50" fill="#f7f6f2"/>
<circle cx="80" cy="100" r="49" fill="none" stroke="#2f6b4f" stroke-width="1.2"/>
<circle cx="80" cy="100" r="43" fill="url(#e-choc)"/>
<circle cx="80" cy="100" r="43" fill="none" stroke="#150903" stroke-width="2" opacity="0.6"/>
<path d="M54,92 Q74,78 100,84" fill="none" stroke="#6b3a1f" stroke-width="2.4" stroke-linecap="round" opacity="0.8"/>
<path d="M58,110 Q80,100 104,106" fill="none" stroke="#5a2f18" stroke-width="2" stroke-linecap="round" opacity="0.7"/>
<ellipse cx="66" cy="78" rx="13" ry="4.5" transform="rotate(-24 66 78)" fill="#fff" opacity="0.22"/>
<ellipse cx="62" cy="76" rx="5" ry="1.8" transform="rotate(-24 62 76)" fill="#fff" opacity="0.5"/>
<ellipse cx="750" cy="108" rx="98" ry="92" fill="url(#e-shadow)"/>
<ellipse cx="744" cy="100" rx="90" ry="84" fill="url(#e-china)"/>
<ellipse cx="744" cy="100" rx="72" ry="66" fill="none" stroke="#bdbab1" stroke-width="1.2"/>
<ellipse cx="744" cy="100" rx="86" ry="80" fill="none" stroke="#2f6b4f" stroke-width="1.6"/>
<g fill="none" stroke-linecap="round" stroke-linejoin="round">
<path d="M676,150 Q726.1,92.5 770,30" stroke="#5e2f10" stroke-width="16.5"/><path d="M676,150 Q726.1,92.5 770,30" stroke="#a65a22" stroke-width="15.0"/><path d="M676,150 Q726.1,92.5 770,30" stroke="#e2a458" stroke-width="12.6"/><path d="M676,150 Q726.1,92.5 770,30" stroke="#a95f26" stroke-width="10.4"/><path d="M676,150 Q726.1,92.5 770,30" stroke="#eeb96c" stroke-width="8.2"/><path d="M676,150 Q726.1,92.5 770,30" stroke="#b36a2c" stroke-width="6.0"/><path d="M676,150 Q726.1,92.5 770,30" stroke="#f5c97f" stroke-width="3.8"/><path d="M676,150 Q726.1,92.5 770,30" stroke="#c27a36" stroke-width="1.6"/>
<path d="M694,164 Q740.7,103.1 792,46" stroke="#5e2f10" stroke-width="16.5"/><path d="M694,164 Q740.7,103.1 792,46" stroke="#a65a22" stroke-width="15.0"/><path d="M694,164 Q740.7,103.1 792,46" stroke="#e2a458" stroke-width="12.6"/><path d="M694,164 Q740.7,103.1 792,46" stroke="#a95f26" stroke-width="10.4"/><path d="M694,164 Q740.7,103.1 792,46" stroke="#eeb96c" stroke-width="8.2"/><path d="M694,164 Q740.7,103.1 792,46" stroke="#b36a2c" stroke-width="6.0"/><path d="M694,164 Q740.7,103.1 792,46" stroke="#f5c97f" stroke-width="3.8"/><path d="M694,164 Q740.7,103.1 792,46" stroke="#c27a36" stroke-width="1.6"/>
<path d="M664,128 Q705.0,74.4 752,26" stroke="#5e2f10" stroke-width="16.5"/><path d="M664,128 Q705.0,74.4 752,26" stroke="#a65a22" stroke-width="15.0"/><path d="M664,128 Q705.0,74.4 752,26" stroke="#e2a458" stroke-width="12.6"/><path d="M664,128 Q705.0,74.4 752,26" stroke="#a95f26" stroke-width="10.4"/><path d="M664,128 Q705.0,74.4 752,26" stroke="#eeb96c" stroke-width="8.2"/><path d="M664,128 Q705.0,74.4 752,26" stroke="#b36a2c" stroke-width="6.0"/><path d="M664,128 Q705.0,74.4 752,26" stroke="#f5c97f" stroke-width="3.8"/><path d="M664,128 Q705.0,74.4 752,26" stroke="#c27a36" stroke-width="1.6"/>
<path d="M716,172 Q763.2,123.0 806,70" stroke="#5e2f10" stroke-width="16.5"/><path d="M716,172 Q763.2,123.0 806,70" stroke="#a65a22" stroke-width="15.0"/><path d="M716,172 Q763.2,123.0 806,70" stroke="#e2a458" stroke-width="12.6"/><path d="M716,172 Q763.2,123.0 806,70" stroke="#a95f26" stroke-width="10.4"/><path d="M716,172 Q763.2,123.0 806,70" stroke="#eeb96c" stroke-width="8.2"/><path d="M716,172 Q763.2,123.0 806,70" stroke="#b36a2c" stroke-width="6.0"/><path d="M716,172 Q763.2,123.0 806,70" stroke="#f5c97f" stroke-width="3.8"/><path d="M716,172 Q763.2,123.0 806,70" stroke="#c27a36" stroke-width="1.6"/>
<path d="M670,98 Q734.2,112.9 800,118" stroke="#5e2f10" stroke-width="16.5"/><path d="M670,98 Q734.2,112.9 800,118" stroke="#a65a22" stroke-width="15.0"/><path d="M670,98 Q734.2,112.9 800,118" stroke="#e2a458" stroke-width="12.6"/><path d="M670,98 Q734.2,112.9 800,118" stroke="#a95f26" stroke-width="10.4"/><path d="M670,98 Q734.2,112.9 800,118" stroke="#eeb96c" stroke-width="8.2"/><path d="M670,98 Q734.2,112.9 800,118" stroke="#b36a2c" stroke-width="6.0"/><path d="M670,98 Q734.2,112.9 800,118" stroke="#f5c97f" stroke-width="3.8"/><path d="M670,98 Q734.2,112.9 800,118" stroke="#c27a36" stroke-width="1.6"/>
<path d="M662,64 Q728.2,103.7 790,150" stroke="#5e2f10" stroke-width="16.5"/><path d="M662,64 Q728.2,103.7 790,150" stroke="#a65a22" stroke-width="15.0"/><path d="M662,64 Q728.2,103.7 790,150" stroke="#e2a458" stroke-width="12.6"/><path d="M662,64 Q728.2,103.7 790,150" stroke="#a95f26" stroke-width="10.4"/><path d="M662,64 Q728.2,103.7 790,150" stroke="#eeb96c" stroke-width="8.2"/><path d="M662,64 Q728.2,103.7 790,150" stroke="#b36a2c" stroke-width="6.0"/><path d="M662,64 Q728.2,103.7 790,150" stroke="#f5c97f" stroke-width="3.8"/><path d="M662,64 Q728.2,103.7 790,150" stroke="#c27a36" stroke-width="1.6"/>
</g>
<g fill="#fffaf0" opacity="0.85"><circle cx="698.3" cy="60.3" r="0.9"/><circle cx="803.5" cy="79.9" r="0.9"/><circle cx="793.7" cy="108.2" r="0.5"/><circle cx="702.4" cy="49.6" r="0.5"/><circle cx="696.2" cy="144.4" r="0.7"/><circle cx="690.0" cy="86.4" r="0.5"/><circle cx="738.4" cy="58.1" r="0.5"/><circle cx="800.0" cy="71.0" r="0.5"/><circle cx="745.5" cy="82.3" r="0.9"/><circle cx="724.5" cy="84.2" r="0.5"/><circle cx="749.3" cy="99.2" r="0.5"/><circle cx="773.2" cy="93.3" r="0.5"/><circle cx="726.3" cy="162.8" r="0.9"/><circle cx="785.7" cy="63.3" r="0.5"/><circle cx="801.3" cy="80.1" r="0.7"/><circle cx="730.6" cy="137.8" r="0.5"/><circle cx="779.0" cy="86.7" r="0.7"/><circle cx="725.8" cy="148.6" r="0.5"/><circle cx="692.7" cy="68.5" r="0.5"/><circle cx="719.4" cy="155.5" r="0.7"/><circle cx="733.5" cy="73.2" r="0.7"/><circle cx="739.0" cy="84.9" r="0.5"/><circle cx="786.0" cy="87.6" r="0.7"/><circle cx="809.3" cy="106.6" r="0.7"/><circle cx="695.6" cy="142.4" r="0.7"/><circle cx="774.1" cy="108.1" r="0.5"/><circle cx="770.9" cy="122.3" r="0.7"/><circle cx="719.4" cy="132.6" r="0.9"/><circle cx="743.7" cy="144.9" r="0.9"/><circle cx="743.3" cy="41.1" r="0.7"/><circle cx="814.1" cy="114.6" r="0.5"/><circle cx="757.7" cy="145.7" r="0.7"/><circle cx="781.6" cy="81.1" r="0.9"/><circle cx="704.3" cy="89.7" r="0.7"/><circle cx="721.1" cy="155.4" r="0.9"/><circle cx="780.5" cy="144.1" r="0.7"/><circle cx="752.6" cy="112.4" r="0.9"/><circle cx="697.9" cy="91.2" r="0.5"/><circle cx="741.4" cy="61.4" r="0.7"/><circle cx="697.8" cy="111.8" r="0.5"/><circle cx="802.6" cy="93.1" r="0.7"/><circle cx="727.0" cy="125.9" r="0.9"/><circle cx="719.2" cy="90.6" r="0.7"/><circle cx="782.2" cy="127.0" r="0.5"/><circle cx="788.8" cy="115.4" r="0.5"/><circle cx="673.2" cy="119.1" r="0.5"/><circle cx="793.3" cy="93.3" r="0.7"/><circle cx="728.4" cy="65.5" r="0.7"/><circle cx="732.0" cy="140.6" r="0.5"/><circle cx="795.0" cy="138.9" r="0.9"/><circle cx="800.7" cy="86.9" r="0.7"/><circle cx="765.2" cy="79.3" r="0.7"/><circle cx="734.9" cy="157.8" r="0.9"/><circle cx="701.8" cy="144.8" r="0.7"/><circle cx="723.4" cy="49.4" r="0.7"/><circle cx="703.4" cy="141.9" r="0.7"/><circle cx="763.4" cy="70.8" r="0.9"/><circle cx="728.6" cy="36.9" r="0.7"/><circle cx="710.8" cy="59.4" r="0.5"/><circle cx="679.8" cy="109.3" r="0.7"/><circle cx="720.2" cy="60.4" r="0.9"/><circle cx="704.3" cy="52.9" r="0.7"/><circle cx="737.5" cy="138.4" r="0.7"/><circle cx="704.1" cy="149.0" r="0.9"/><circle cx="701.5" cy="112.4" r="0.7"/><circle cx="690.5" cy="94.5" r="0.5"/><circle cx="758.1" cy="137.7" r="0.7"/><circle cx="739.7" cy="118.1" r="0.9"/><circle cx="740.2" cy="72.8" r="0.9"/><circle cx="672.8" cy="93.4" r="0.7"/><circle cx="697.6" cy="59.3" r="0.9"/><circle cx="734.4" cy="165.3" r="0.5"/><circle cx="770.3" cy="137.0" r="0.9"/><circle cx="771.2" cy="152.1" r="0.5"/><circle cx="733.7" cy="90.1" r="0.7"/><circle cx="773.9" cy="96.6" r="0.5"/><circle cx="799.9" cy="141.7" r="0.7"/><circle cx="748.9" cy="111.7" r="0.7"/><circle cx="708.3" cy="143.2" r="0.5"/><circle cx="713.5" cy="82.7" r="0.7"/><circle cx="791.1" cy="100.2" r="0.7"/><circle cx="786.5" cy="51.7" r="0.9"/><circle cx="766.1" cy="64.8" r="0.5"/><circle cx="705.4" cy="88.8" r="0.7"/><circle cx="702.6" cy="89.2" r="0.9"/><circle cx="732.2" cy="137.7" r="0.5"/><circle cx="685.7" cy="129.0" r="0.9"/><circle cx="694.9" cy="89.2" r="0.5"/><circle cx="698.2" cy="71.9" r="0.5"/><circle cx="800.6" cy="89.7" r="0.7"/></g>
<g fill="none" stroke-linecap="round">
<path d="M88,112 Q128,144 152,200" stroke="#5e2f10" stroke-width="16.5"/><path d="M88,112 Q128,144 152,200" stroke="#a65a22" stroke-width="15.0"/><path d="M88,112 Q128,144 152,200" stroke="#e2a458" stroke-width="12.6"/><path d="M88,112 Q128,144 152,200" stroke="#a95f26" stroke-width="10.4"/><path d="M88,112 Q128,144 152,200" stroke="#eeb96c" stroke-width="8.2"/><path d="M88,112 Q128,144 152,200" stroke="#b36a2c" stroke-width="6.0"/><path d="M88,112 Q128,144 152,200" stroke="#f5c97f" stroke-width="3.8"/><path d="M88,112 Q128,144 152,200" stroke="#c27a36" stroke-width="1.6"/>
</g>
<path d="M82,106 Q98,120 110,134" fill="none" stroke="#2a1309" stroke-width="17.5" stroke-linecap="round"/>
<path d="M89,108 Q100,117 108,126" fill="none" stroke="#6b3a1f" stroke-width="2" stroke-linecap="round" opacity="0.7"/>
<text x="400" y="90" text-anchor="middle" font-family="system-ui, -apple-system, 'Segoe UI', Helvetica, Arial, sans-serif" font-size="30" font-weight="700" fill="#ffffff">awesome-comunidad-de-madrid</text>
<rect x="350" y="104" width="100" height="2" rx="1" fill="#e0a257" opacity="0.9"/>
<text x="400" y="130" text-anchor="middle" font-family="system-ui, -apple-system, 'Segoe UI', Helvetica, Arial, sans-serif" font-size="11" font-weight="500" letter-spacing="2" fill="#ffffff" fill-opacity="0.68">SOFTWARE OPEN SOURCE PARA LA COMUNIDAD DE MADRID</text>
</g></svg>
