<svg xmlns="http://www.w3.org/2000/svg" viewBox="0 0 800 200" width="800" height="200">
  <defs>
    <clipPath id="c-clip"><rect width="800" height="200" rx="16"/></clipPath>
    <linearGradient id="c-bg" x1="0%" y1="0%" x2="100%" y2="100%">
      <stop offset="0%" stop-color="#0a0a0f"/><stop offset="100%" stop-color="#14141f"/>
    </linearGradient>
    <linearGradient id="c-fade" x1="400" y1="0" x2="640" y2="0" gradientUnits="userSpaceOnUse">
      <stop offset="0" stop-color="#f3efe6" stop-opacity="0"/><stop offset="1" stop-color="#f3efe6" stop-opacity="0.75"/>
    </linearGradient>
    <radialGradient id="c-glow" cx="712" cy="104" r="100" gradientUnits="userSpaceOnUse">
      <stop offset="0" stop-color="#e8973a" stop-opacity="0.28"/><stop offset="1" stop-color="#e8973a" stop-opacity="0"/>
    </radialGradient>
    <filter id="c-blur" x="-50%" y="-50%" width="200%" height="200%"><feGaussianBlur stdDeviation="40"/></filter>
    <filter id="c-soft" x="-20%" y="-20%" width="140%" height="140%"><feGaussianBlur stdDeviation="2.2"/></filter>
  </defs>
  <g clip-path="url(#c-clip)">
    <rect width="800" height="200" fill="url(#c-bg)"/>
    <ellipse cx="120" cy="190" rx="220" ry="110" fill="#7a5a3a" opacity="0.12" filter="url(#c-blur)"/>
    <circle cx="712" cy="104" r="100" fill="url(#c-glow)"/>
    <rect width="800" height="2" fill="#e8973a" opacity="0.6"/>

    <!-- radial roads from Kilómetro 0, Puerta del Sol -->
    <g stroke="url(#c-fade)" stroke-width="1.6" stroke-linecap="round" fill="none">
      <line x1="712" y1="104" x2="774" y2="-493"/> <line x1="712" y1="104" x2="1221" y2="-214"/> <line x1="712" y1="104" x2="1283" y2="290"/> <line x1="712" y1="104" x2="670" y2="703"/> <line x1="712" y1="104" x2="182" y2="386"/> <line x1="712" y1="104" x2="239" y2="-265"/>
    </g>
    <!-- ring roads -->
    <g filter="url(#c-soft)" opacity="0.6">
      <ellipse cx="712" cy="104" rx="20" ry="18.5" fill="none" stroke="#e8973a" stroke-opacity="0.9" stroke-width="2.2"/>
<ellipse cx="712" cy="104" rx="46" ry="43" fill="none" stroke="#e8973a" stroke-opacity="0.65" stroke-width="1.8"/>
<ellipse cx="712" cy="104" rx="74" ry="69" fill="none" stroke="#e8973a" stroke-opacity="0.45" stroke-width="1.5"/>
</g>
    <ellipse cx="712" cy="104" rx="20" ry="18.5" fill="none" stroke="#e8973a" stroke-opacity="0.9" stroke-width="2.2"/>
<ellipse cx="712" cy="104" rx="46" ry="43" fill="none" stroke="#e8973a" stroke-opacity="0.65" stroke-width="1.8"/>
<ellipse cx="712" cy="104" rx="74" ry="69" fill="none" stroke="#e8973a" stroke-opacity="0.45" stroke-width="1.5"/>
<text x="726.2" y="123.8" font-family="system-ui, -apple-system, 'Segoe UI', Helvetica, Arial, sans-serif" font-size="7.5" font-weight="600" letter-spacing="0.8" fill="#e8973a">M-30</text>
    <text x="741.7" y="142.3" font-family="system-ui, -apple-system, 'Segoe UI', Helvetica, Arial, sans-serif" font-size="7.5" font-weight="600" letter-spacing="0.8" fill="#e8973a">M-40</text>
    <text x="764.4" y="169.5" font-family="system-ui, -apple-system, 'Segoe UI', Helvetica, Arial, sans-serif" font-size="7.5" font-weight="600" letter-spacing="0.8" fill="#e8973a">M-50</text>
    <g transform="translate(718.2,44.3)"><rect x="-13" y="-7" width="26" height="14" rx="2.5" fill="#1d5aa6" stroke="#ffffff" stroke-width="1"/><text x="0" y="3.4" text-anchor="middle" font-family="system-ui, -apple-system, 'Segoe UI', Helvetica, Arial, sans-serif" font-size="9" font-weight="700" fill="#ffffff">A-1</text></g>
    <g transform="translate(762.9,72.2)"><rect x="-13" y="-7" width="26" height="14" rx="2.5" fill="#1d5aa6" stroke="#ffffff" stroke-width="1"/><text x="0" y="3.4" text-anchor="middle" font-family="system-ui, -apple-system, 'Segoe UI', Helvetica, Arial, sans-serif" font-size="9" font-weight="700" fill="#ffffff">A-2</text></g>
    <g transform="translate(769.1,122.6)"><rect x="-13" y="-7" width="26" height="14" rx="2.5" fill="#1d5aa6" stroke="#ffffff" stroke-width="1"/><text x="0" y="3.4" text-anchor="middle" font-family="system-ui, -apple-system, 'Segoe UI', Helvetica, Arial, sans-serif" font-size="9" font-weight="700" fill="#ffffff">A-3</text></g>
    <g transform="translate(707.8,163.9)"><rect x="-13" y="-7" width="26" height="14" rx="2.5" fill="#1d5aa6" stroke="#ffffff" stroke-width="1"/><text x="0" y="3.4" text-anchor="middle" font-family="system-ui, -apple-system, 'Segoe UI', Helvetica, Arial, sans-serif" font-size="9" font-weight="700" fill="#ffffff">A-4</text></g>
    <g transform="translate(659.0,132.2)"><rect x="-13" y="-7" width="26" height="14" rx="2.5" fill="#1d5aa6" stroke="#ffffff" stroke-width="1"/><text x="0" y="3.4" text-anchor="middle" font-family="system-ui, -apple-system, 'Segoe UI', Helvetica, Arial, sans-serif" font-size="9" font-weight="700" fill="#ffffff">A-5</text></g>
    <g transform="translate(664.7,67.1)"><rect x="-13" y="-7" width="26" height="14" rx="2.5" fill="#1d5aa6" stroke="#ffffff" stroke-width="1"/><text x="0" y="3.4" text-anchor="middle" font-family="system-ui, -apple-system, 'Segoe UI', Helvetica, Arial, sans-serif" font-size="9" font-weight="700" fill="#ffffff">A-6</text></g>

    <!-- Kilómetro 0 plaque, Puerta del Sol -->
    <rect x="696" y="96" width="32" height="16" rx="3" fill="#d8cdb8" stroke="#8a7d68" stroke-width="1"/>
    <text x="712" y="107.3" text-anchor="middle" font-family="system-ui, -apple-system, 'Segoe UI', Helvetica, Arial, sans-serif" font-size="8.5" font-weight="700" letter-spacing="0.6" fill="#2a2520">KM 0</text>

    <text x="40" y="92" font-family="system-ui, -apple-system, 'Segoe UI', Helvetica, Arial, sans-serif" font-size="30" fill="#ffffff" font-weight="700" letter-spacing="0.5">awesome-comunidad-de-madrid</text>
    <rect x="40" y="103" width="120" height="2" rx="1" fill="#e8973a" opacity="0.7"/>
    <text x="40" y="127" font-family="system-ui, -apple-system, 'Segoe UI', Helvetica, Arial, sans-serif" font-size="12" fill="#ffffff" fill-opacity="0.55" font-weight="300" letter-spacing="2">SOFTWARE OPEN SOURCE PARA LA COMUNIDAD DE MADRID</text>
  </g>
</svg>
